<svg id="text-only" xmlns="http://www.w3.org/2000/svg" xmlns:xlink="http://www.w3.org/1999/xlink" viewBox="0 0 186.42 86.74">
  <defs>
    <style>
      .cls-1 {
        font-size: 31.34px;
        fill: #d1253f;
        font-family: BilgateFont, Bilgate Font;
        letter-spacing: -0.02em;
      }

      .cls-2 {
        letter-spacing: -0.03em;
      }

      .cls-3 {
        fill: none;
        stroke: #c7931b;
        stroke-miterlimit: 10;
        stroke-width: 0.5px;
      }

      .cls-4 {
        fill: #182b52;
      }

      .cls-5 {
        fill: url(#linear-gradient);
      }

      .cls-6 {
        fill: url(#linear-gradient-2);
      }

      .cls-7 {
        fill: url(#linear-gradient-3);
      }

      .cls-8 {
        fill: url(#linear-gradient-4);
      }

      .cls-9 {
        fill: url(#linear-gradient-5);
      }

      .cls-10 {
        fill: url(#linear-gradient-6);
      }

      .cls-11 {
        fill: url(#linear-gradient-7);
      }

      .cls-12 {
        fill: url(#linear-gradient-8);
      }

      .cls-13 {
        fill: url(#linear-gradient-9);
      }

      .cls-14 {
        fill: url(#linear-gradient-10);
      }
    </style>
    <linearGradient id="linear-gradient" x1="-0.21" y1="17.54" x2="37.08" y2="17.54" gradientUnits="userSpaceOnUse">
      <stop offset="0" stop-color="#fff"/>
      <stop offset="0.09" stop-color="#fff" stop-opacity="0.97"/>
      <stop offset="0.22" stop-color="#fff" stop-opacity="0.88"/>
      <stop offset="0.39" stop-color="#fff" stop-opacity="0.74"/>
      <stop offset="0.58" stop-color="#fff" stop-opacity="0.54"/>
      <stop offset="0.79" stop-color="#fff" stop-opacity="0.28"/>
      <stop offset="1" stop-color="#fff" stop-opacity="0"/>
    </linearGradient>
    <linearGradient id="linear-gradient-2" x1="38.59" y1="17.19" x2="51.86" y2="17.19" xlink:href="#linear-gradient"/>
    <linearGradient id="linear-gradient-3" x1="52.15" y1="17.4" x2="78.85" y2="17.4" xlink:href="#linear-gradient"/>
    <linearGradient id="linear-gradient-4" x1="79.1" y1="17.07" x2="106.01" y2="17.07" xlink:href="#linear-gradient"/>
    <linearGradient id="linear-gradient-5" x1="88.96" y1="17.87" x2="98.66" y2="17.87" xlink:href="#linear-gradient"/>
    <linearGradient id="linear-gradient-6" x1="106.5" y1="16.92" x2="126.41" y2="16.92" xlink:href="#linear-gradient"/>
    <linearGradient id="linear-gradient-7" x1="128.02" y1="17.34" x2="157.05" y2="17.34" xlink:href="#linear-gradient"/>
    <linearGradient id="linear-gradient-8" x1="135.35" y1="17.56" x2="149.55" y2="17.56" xlink:href="#linear-gradient"/>
    <linearGradient id="linear-gradient-9" x1="157.72" y1="20.2" x2="187.11" y2="20.2" xlink:href="#linear-gradient"/>
    <linearGradient id="linear-gradient-10" x1="167.08" y1="11.67" x2="171.88" y2="11.67" xlink:href="#linear-gradient"/>
  </defs>
  <text class="cls-1" transform="translate(23.95 68.5)">Safe-T-S<tspan class="cls-2" x="109.48" y="0">a</tspan><tspan x="122.02" y="0">lt</tspan></text>
  <g id="Windsor">
    <polygon id="underline" class="cls-3" points="171.07 37.76 0.33 37.76 0.33 37.58 170.86 37.58 171.07 37.76"/>
    <g id="text">
      <path class="cls-4" d="M29,34.22l-2-.85a10.48,10.48,0,0,1-4-3.42,12.29,12.29,0,0,1-1.29-3.67L18.77,14.66l-4,19.52-2-.73A10.84,10.84,0,0,1,8.54,30,10.17,10.17,0,0,1,7.21,26.4L2.2,5A8.87,8.87,0,0,0,1.08,2.53,11.18,11.18,0,0,0,0,1H8.94c0,.42-.67-.64.24,3.67.17.81.27,1.24.44,2.05l3.73,17.12L16.63,7.57a9.7,9.7,0,0,0-1.15-5.72c-.24-.3-.37-.6-.61-.85h8.5a2.56,2.56,0,0,0-.37.94,6.68,6.68,0,0,0,.24,2.43l4.5,19.26L31.33,7.57a9.2,9.2,0,0,0,.38-2.69A6,6,0,0,0,30.32,1h6.87Z"/>
      <path class="cls-4" d="M39.4,33.32a2.75,2.75,0,0,0,.81-.72,4.91,4.91,0,0,0,1-3.38V4.67a6.46,6.46,0,0,0-.51-2.14A4,4,0,0,0,39.37,1H50.24A5,5,0,0,0,49,2.58a6.5,6.5,0,0,0-.54,2.09V28.15A7.29,7.29,0,0,0,49,31.83a3.65,3.65,0,0,0,1.25,1.49Z"/>
      <path class="cls-4" d="M76.93,3.09a6.45,6.45,0,0,0-.54,2.78l0,28.73a11.3,11.3,0,0,1-4.17-1.83,13.58,13.58,0,0,1-4.57-4.49L58.71,13.21V28.28a7,7,0,0,0,.78,3.55,5.79,5.79,0,0,0,1,1.49H52.78a5.66,5.66,0,0,0,1-1.49,8,8,0,0,0,.78-3.59V7.7A9.83,9.83,0,0,0,54,3.81,11.63,11.63,0,0,0,52.31,1H60.4L72.29,21.07V5.82a6.85,6.85,0,0,0-.54-2.65A8.13,8.13,0,0,0,70.6,1h7.49A8.28,8.28,0,0,0,76.93,3.09Z"/>
      <path class="cls-4" d="M91.68,33.32H79.85c.41-.21.68-.17,1-.6a4.93,4.93,0,0,0,1-3.37V4.75a4.26,4.26,0,0,0-.65-2.22A5.06,5.06,0,0,0,80.06,1h12.7c7.65,0,13,7.68,12.87,16.69C105.5,26.87,100.92,33.32,91.68,33.32ZM90.05,6.5l-1.19.26V28l1.15.55c5.76,2.74,8-5.17,8.07-11S96.11,5.05,90.05,6.5Z"/>
      <path class="cls-4" d="M115.46,34.05a15.85,15.85,0,0,1-6.64-1.54l-.94-.43-1.16-6.74,2.78,2A9.21,9.21,0,0,0,115.16,29c2.06-.13,3.73-1.15,3.69-3.46a4.73,4.73,0,0,0-2.74-4.18L113.4,19.7c-4.51-2.78-6.44-5.34-6.3-10.29.13-5.47,4.3-8.63,9.28-8.84a14.3,14.3,0,0,1,4.37.6l2.44.77V7.66l-1.53-1.07A8.08,8.08,0,0,0,118,5.35a3.17,3.17,0,0,0-3.52,2.18c-.81,2.6,1.29,3.71,4,5.34L121,14.36a10.7,10.7,0,0,1,5,9C126.17,29.91,121.53,34,115.46,34.05Z"/>
      <path class="cls-4" d="M141.6,34.22c-8.37,0-13.68-7.73-13.68-16.66C127.92,8,133.84.61,142.41.61c8.2,0,14.27,6.41,14.27,16.1C156.68,27.73,150.41,34.22,141.6,34.22Zm.27-28.78c-4.33,0-6.5,4.87-6.5,10.63,0,6.53,2.64,13.28,7,13.28,4.81,0,6.64-5,6.64-10.42C149.05,12.36,147,5.44,141.87,5.44Z"/>
      <path class="cls-4" d="M183.16,39.42c-1.25,0-3.73.85-5.39-.22-1.25-.81-6.33-9.12-6.54-9.63l-4.2-10v8.33a9.13,9.13,0,0,0,.41,3.63,3.78,3.78,0,0,0,1.29,1.8H158a5.87,5.87,0,0,0,.72-.69,5,5,0,0,0,1.15-3.5l0-24.6a11.21,11.21,0,0,0-.74-2.64,3.35,3.35,0,0,0-.85-.94h12.43c5.56,0,7.69,4.48,7.66,9.05A8.56,8.56,0,0,1,174,17.39l-.31.17.65,1.33c2.57,5.21,3.25,7.3,5,10.59.88,1.58,5.86,8.66,7,10ZM168.09,6H167V17c1.67-.17,4-2.31,4.14-5.72C171.23,8.38,170.18,6,168.09,6Z"/>
    </g>
    <g id="highlight">
      <path class="cls-5" d="M28.68,34.3l-1.35-.58A7.66,7.66,0,0,1,26,33.08a11,11,0,0,1-2.29-1.79c-1.42-1.4-1.91-3.41-2.31-5.27L18.67,14.73h.19L15,34.25l0,.17-.16-.06c-.74-.29-1.48-.51-2.23-.85a13.21,13.21,0,0,1-2-1.32A8.89,8.89,0,0,1,9,30.45,8.47,8.47,0,0,1,7.88,28.3c-.47-1.53-.74-3.07-1.12-4.61l-1-4.61L3.6,9.86,2.55,5.25A11.84,11.84,0,0,0,.41,1.19L.15.81H.59l8.66,0h.28L9.5,1a.52.52,0,0,1-.05.21.39.39,0,0,1-.16.15s0,0,0,0a1.06,1.06,0,0,0,0,.28c0,.22,0,.46.05.7.07.47.15.95.24,1.42l.59,2.86,1.22,5.72L13.8,23.82h-.58l2.24-11.56L16,9.38l.28-1.45a5.47,5.47,0,0,0,.14-1.39A11.67,11.67,0,0,0,16,3.73a6.81,6.81,0,0,0-.49-1.31,1.78,1.78,0,0,0-.17-.27l-.22-.32a4.9,4.9,0,0,0-.38-.56L14.2.69H15l8.23,0h.59l-.25.53c-.11.23-.23.44-.29.61a2.56,2.56,0,0,0-.06.61,6.29,6.29,0,0,0,.12,1.37L24,6.61l1.28,5.66,2.57,11.32h-.73l2.49-11.4L30.84,6.5a7.43,7.43,0,0,0,0-2.78,5.61,5.61,0,0,0-1.15-2.5L29.34.74h.6l6.66,0h.34l-.08.32Zm0-.07L36.35,1l.25.32-6.66,0,.24-.47A6.37,6.37,0,0,1,31.47,3.6a8.07,8.07,0,0,1,0,3l-1.21,5.72L27.82,23.75l-.36,1.66-.37-1.66L24.52,12.43,23.24,6.77,22.6,3.93a7,7,0,0,1-.13-1.52,2.88,2.88,0,0,1,.1-.83,4.65,4.65,0,0,1,.32-.7l.33.53L15,1.39,15.25.8a5.18,5.18,0,0,1,.45.66l.2.28a3.35,3.35,0,0,1,.21.36,6.82,6.82,0,0,1,.54,1.44,12.57,12.57,0,0,1,.45,3A6,6,0,0,1,17,8.06L16.66,9.5l-.57,2.89L13.8,23.94l-.28,1.42L13.23,24,10.84,12.5,9.64,6.77,9.06,3.91c-.09-.49-.17-1-.23-1.46a6.32,6.32,0,0,1-.06-.76,1.19,1.19,0,0,1,.05-.44A.46.46,0,0,1,9,1S9,1,9,1,9,1,9,1l.25.25-8.66,0L.77.89A12.29,12.29,0,0,1,3,5.15L4,9.76,6.09,19l1,4.62c.37,1.53.64,3.1,1.09,4.58a8.31,8.31,0,0,0,1,2.07,8.44,8.44,0,0,0,1.59,1.68,12.63,12.63,0,0,0,1.94,1.3c.68.31,1.46.56,2.18.84l-.2.11,3.92-19.51.09-.43.11.43L21.54,26a20.11,20.11,0,0,0,.75,2.79,7.07,7.07,0,0,0,1.5,2.44A11.5,11.5,0,0,0,26.06,33a8,8,0,0,0,1.28.64Z"/>
      <path class="cls-6" d="M39.85,33.38a4.09,4.09,0,0,0,1.34-1.6,5.37,5.37,0,0,0,.42-2l0-4.18-.06-8.38-.05-8.37,0-4.17A5.76,5.76,0,0,0,41,2.73a3.94,3.94,0,0,0-1.27-1.49L39,.8h.86L50.73.74h1l-.77.55a4.93,4.93,0,0,0-1.16,1.56,6.11,6.11,0,0,0-.46,1.87l0,4.17,0,8.34c0,2.79,0,5.57,0,8.35l0,4.17a4.5,4.5,0,0,0,.4,1.9,3.66,3.66,0,0,0,1.2,1.52l.66.48-.81,0-5.52-.12C43.39,33.44,41.62,33.39,39.85,33.38Zm.07,0c1.85,0,3.69-.06,5.49-.12l5.32-.12-.16.46a4.69,4.69,0,0,1-1.91-3.81l0-4.19c0-2.78,0-5.56,0-8.35l0-8.34,0-4.19a6.51,6.51,0,0,1,.56-2.15A5.43,5.43,0,0,1,50.55.8l.18.54L39.85,1.28,40,.83A4.43,4.43,0,0,1,41.4,2.5a6,6,0,0,1,.5,2.12V8.83l0,8.37-.06,8.38,0,4.19a5.37,5.37,0,0,1-.46,2.05,4,4,0,0,1-.58.89A2.12,2.12,0,0,1,39.92,33.35Z"/>
      <path class="cls-7" d="M77,2.9a6.75,6.75,0,0,0-.48,1.88c-.06.65,0,1.31,0,2V18.52l0,15.7v.15l-.15,0A11.33,11.33,0,0,1,73.08,33a23.62,23.62,0,0,1-2.86-2.1,11.16,11.16,0,0,1-2.31-2.72l-1.88-3-7.51-12,.41-.12.43,10.11.21,5.06A6.89,6.89,0,0,0,60,30.69a6.49,6.49,0,0,0,1.25,2.08l.4.44h-.61l-7.49,0h-.63l.41-.48a7,7,0,0,0,1.55-3.6,13.38,13.38,0,0,0,.08-2V25.08l0-8.26,0-8.26a16,16,0,0,0-.29-4,7.84,7.84,0,0,0-.73-1.84,10.15,10.15,0,0,0-1-1.63L52.32.43h8.85l.11.19C63.19,4,65.13,7.26,67,10.61l5.69,10-.49.13.08-10.15,0-5.08a7,7,0,0,0-.47-2.43A8.77,8.77,0,0,0,70.75.87L70.6.69h.23l7.26.05h.11l-.07.09A8.25,8.25,0,0,0,77,2.9Zm-.07,0A8.45,8.45,0,0,1,78,.77l0,.09L70.83.91l.08-.17A8.64,8.64,0,0,1,72.1,3a7.22,7.22,0,0,1,.52,2.52l0,5.08.08,10.15v1l-.49-.84L66.41,11c-2-3.31-3.86-6.65-5.78-10l.32.19H53.11l.25-.65a10.61,10.61,0,0,1,1.19,1.84,8.61,8.61,0,0,1,.79,2,16.24,16.24,0,0,1,.3,4.2l0,8.26,0,8.26v2.06a13.73,13.73,0,0,1-.1,2.11,7.59,7.59,0,0,1-1.69,3.88l-.23-.47,7.49,0-.21.44a7.32,7.32,0,0,1-1.78-4.81l-.19-5-.38-10.11,0-.84.44.71,7.44,12c1.3,2,2.28,4.16,4.08,5.67a21.3,21.3,0,0,0,2.8,2.1,10.91,10.91,0,0,0,3.22,1.31l-.15.12.07-15.7,0-7.85V6.74c0-.65,0-1.31,0-2A7,7,0,0,1,76.93,2.87Z"/>
      <g>
        <path class="cls-8" d="M92.07,33.4l-11.49,0h-.3l.27-.14c.32-.17.67-.22.87-.5a4.86,4.86,0,0,0,.54-.87,5.32,5.32,0,0,0,.42-2l0-4.19-.06-8.38,0-8.39,0-4.2a4,4,0,0,0-.52-1.89A5.49,5.49,0,0,0,80.6,1.24L80,.77h.74l7.36,0,3.68,0c.62,0,1.22,0,1.86,0,.31,0,.63,0,.95.07l.93.18A10.52,10.52,0,0,1,99,2.47a13,13,0,0,1,1.51,1.14A15.38,15.38,0,0,1,101.86,5a17.5,17.5,0,0,1,3.37,6.66,22.06,22.06,0,0,1,.68,7.41,19.28,19.28,0,0,1-1.79,7.2,12.29,12.29,0,0,1-4.93,5.45A14.4,14.4,0,0,1,92.07,33.4Zm0-.07a14.25,14.25,0,0,0,7-1.81,12,12,0,0,0,4.62-5.46,20,20,0,0,0,1.54-7,23.34,23.34,0,0,0-.73-7.17,16.67,16.67,0,0,0-3.22-6.38,12,12,0,0,0-2.65-2.38A9.79,9.79,0,0,0,95.4,1.66l-.87-.18c-.29,0-.59-.05-.88-.07-.59-.07-1.22,0-1.83,0l-3.68,0-7.36,0L81,.83a6,6,0,0,1,1.24,1.81,4.43,4.43,0,0,1,.55,2.12l0,4.2,0,8.39-.06,8.38,0,4.2A5.34,5.34,0,0,1,82.11,32a5.68,5.68,0,0,1-.57.9c-.23.32-.65.38-.92.53l0-.14Z"/>
        <path class="cls-9" d="M90.5,6.58l-1.16.26,0,0c0,3.55.08,7.09.12,10.64l.1,10.63-.14-.23a6,6,0,0,0,3.78,1,4.59,4.59,0,0,0,2.84-2.49,14.13,14.13,0,0,0,1.32-3.83,24.09,24.09,0,0,0,.5-4.06,21.81,21.81,0,0,0-1.09-8.07,6.54,6.54,0,0,0-2.35-3.23A5,5,0,0,0,90.5,6.58Zm0-.07A5.18,5.18,0,0,1,94.57,7a7,7,0,0,1,2.69,3.23,15.15,15.15,0,0,1,1.15,4.07,21.27,21.27,0,0,1,.23,4.22,18.72,18.72,0,0,1-2,8.18,5.25,5.25,0,0,1-3.31,2.74,6.51,6.51,0,0,1-4.12-1.1l-.14-.08v-.15l.1-10.63c0-3.55.14-7.09.12-10.64v0h0Z"/>
      </g>
      <path class="cls-10" d="M115.77,33.83a14.06,14.06,0,0,1-4-.57,23.5,23.5,0,0,1-3.71-1.52h0v0L107,25.81l0-.17.14.09,3,1.94a8.85,8.85,0,0,0,3.22,1.41,6.79,6.79,0,0,0,3.47-.09,2.88,2.88,0,0,0,2.08-2.45,5.41,5.41,0,0,0-.72-3.33,5.54,5.54,0,0,0-1.07-1.34,9.48,9.48,0,0,0-1.44-1,26.69,26.69,0,0,1-5.79-4.28A9.11,9.11,0,0,1,108,13.44a11.34,11.34,0,0,1-.57-3.6,11.16,11.16,0,0,1,.47-3.62,8.6,8.6,0,0,1,1.85-3.17,10,10,0,0,1,6.56-3,12.46,12.46,0,0,1,3.65.28c1.2.26,2.31.69,3.46,1l.23.07v.25l0,5.73v.72l-.59-.43-1.2-.86a5.77,5.77,0,0,0-1.21-.72,6.88,6.88,0,0,0-2.71-.66,2.74,2.74,0,0,0-2.31,1A3.1,3.1,0,0,0,115.11,9a4.1,4.1,0,0,0,1.74,2c.79.55,1.64,1.07,2.47,1.59s1.68,1,2.55,1.57A10.33,10.33,0,0,1,124,16.32a11.41,11.41,0,0,1,2.14,5.61,12.27,12.27,0,0,1-.85,5.91,9.56,9.56,0,0,1-3.86,4.47A11.09,11.09,0,0,1,115.77,33.83Zm0-.07a10.93,10.93,0,0,0,5.61-1.59,9.1,9.1,0,0,0,3.68-4.44,11.94,11.94,0,0,0,.66-5.74,10.93,10.93,0,0,0-2.18-5.29,9.43,9.43,0,0,0-2.06-2c-.79-.52-1.69-1-2.53-1.51s-1.7-1-2.54-1.6a4.84,4.84,0,0,1-2-2.43,3.3,3.3,0,0,1,0-1.65A3.81,3.81,0,0,1,115,6a3.45,3.45,0,0,1,2.91-1.32,7.57,7.57,0,0,1,3,.72,6.35,6.35,0,0,1,1.33.8l1.2.87-.58.3,0-5.73.23.33c-1.13-.36-2.26-.8-3.39-1a11.22,11.22,0,0,0-3.46-.3,9.29,9.29,0,0,0-6.18,2.77,8.82,8.82,0,0,0-2.23,6.41,9.24,9.24,0,0,0,2.28,6.43,26,26,0,0,0,5.66,4.25,6.08,6.08,0,0,1,3.35,6.07,3.21,3.21,0,0,1-.76,1.7,3.44,3.44,0,0,1-1.57,1,7,7,0,0,1-3.61,0A8.92,8.92,0,0,1,110,27.82l-3-2,.12-.08,1.08,5.9,0-.05a24.18,24.18,0,0,0,3.69,1.54A14.63,14.63,0,0,0,115.77,33.76Z"/>
      <g>
        <path class="cls-11" d="M141.85,34.3a11.88,11.88,0,0,1-5.91-1.52,13.61,13.61,0,0,1-4.47-4.17,20,20,0,0,1-3.24-11.73,18.76,18.76,0,0,1,4-11.53,13.51,13.51,0,0,1,4.91-3.79,14,14,0,0,1,12.13.4A13.4,13.4,0,0,1,154,6.09,18.94,18.94,0,0,1,157,18a23.66,23.66,0,0,1-1.11,6.12,16.4,16.4,0,0,1-3.05,5.4,13.34,13.34,0,0,1-5,3.62A15.18,15.18,0,0,1,141.85,34.3Zm0-.08a15,15,0,0,0,6-1.24,12.94,12.94,0,0,0,4.74-3.71A18.8,18.8,0,0,0,156.26,18a18.14,18.14,0,0,0-2.91-11.46A12.83,12.83,0,0,0,143.22,1,12.86,12.86,0,0,0,132.6,5.66a18.35,18.35,0,0,0-4,11.23,19.69,19.69,0,0,0,3,11.63,13.46,13.46,0,0,0,4.4,4.16A11.66,11.66,0,0,0,141.85,34.22Z"/>
        <path class="cls-12" d="M142.12,5.52a5,5,0,0,0-3.41,1.35,8.35,8.35,0,0,0-1.94,3.18,18.87,18.87,0,0,0-.82,7.43,21.25,21.25,0,0,0,1.68,7.26,9.88,9.88,0,0,0,2,3,4.16,4.16,0,0,0,3.19,1.3,5,5,0,0,0,3.23-1.31,7.66,7.66,0,0,0,1.85-3.06,19,19,0,0,0,.83-7.33,25.63,25.63,0,0,0-.38-3.71,17.28,17.28,0,0,0-.94-3.61,8.81,8.81,0,0,0-2-3.13A4.86,4.86,0,0,0,142.12,5.52Zm0-.08a5,5,0,0,1,3.49,1.35,9.41,9.41,0,0,1,2.2,3.12,21.35,21.35,0,0,1,1.7,7.43,19.94,19.94,0,0,1-.88,7.62,8.35,8.35,0,0,1-2.1,3.31,5.63,5.63,0,0,1-3.66,1.41,4.78,4.78,0,0,1-3.59-1.51,10.38,10.38,0,0,1-2.1-3.24,21.66,21.66,0,0,1-1.6-7.43,19.06,19.06,0,0,1,1-7.5,8.56,8.56,0,0,1,2-3.18A5.11,5.11,0,0,1,142.12,5.44Z"/>
      </g>
      <g>
        <path class="cls-13" d="M183.23,39.45a30.87,30.87,0,0,1-3.47.33,3.68,3.68,0,0,1-1.69-.46,5,5,0,0,1-1.21-1.27c-1.39-1.88-2.62-3.85-3.84-5.83a31.41,31.41,0,0,1-1.72-3L169.84,26l-2.93-6.33.26-.06.4,7.11c.12,1.18,0,2.4.15,3.53a4.36,4.36,0,0,0,1.53,3l.46.35h-.59l-10.47,0H158l.51-.4a4.55,4.55,0,0,0,1.72-3.46c0-1.36,0-2.77,0-4.16l0-8.34,0-8.33,0-4.17a10.42,10.42,0,0,0-.42-1.94,3.07,3.07,0,0,0-.38-.86,3,3,0,0,0-.65-.68l-.75-.6h1l8.67,0c1.46,0,2.85,0,4.36.05a7.06,7.06,0,0,1,4.15,1.72,8.14,8.14,0,0,1,2.32,3.83,12.45,12.45,0,0,1,.48,4.42,8.91,8.91,0,0,1-4.75,7.2l.13-.41c.89,1.9,1.77,3.82,2.6,5.75s1.62,3.88,2.55,5.76,2.19,3.58,3.33,5.33,2.36,3.49,3.63,5.15l.07.1h-.11Zm0-.07,3.08,0-.05.1c-1.3-1.66-2.49-3.4-3.69-5.12a62.54,62.54,0,0,1-3.47-5.29c-1-1.86-1.83-3.8-2.71-5.71s-1.81-3.78-2.72-5.68l-.13-.27.26-.14a8.2,8.2,0,0,0,4.31-6.7c.17-2.75-.5-5.79-2.55-7.64a6.3,6.3,0,0,0-3.71-1.54c-1.38-.08-2.87,0-4.3,0l-8.67,0,.22-.61a3.82,3.82,0,0,1,.77.83,3.58,3.58,0,0,1,.46,1c.1.34.19.68.26,1a5,5,0,0,1,.17,1.1v12.5l0,8.34c0,1.4,0,2.77,0,4.19a5.56,5.56,0,0,1-.53,2.1,5.51,5.51,0,0,1-.6.91,6,6,0,0,1-.76.75l-.16-.4,10.47,0-.13.35a4.13,4.13,0,0,1-1.15-1.46,6.24,6.24,0,0,1-.5-1.76c-.14-1.22,0-2.38-.11-3.57l-.33-7.11,0-.7.29.64L170,25.93l1.43,3.18a33.44,33.44,0,0,0,1.7,3c1.21,2,2.43,4,3.81,5.85a5,5,0,0,0,1.17,1.25,3.6,3.6,0,0,0,1.64.45A31.48,31.48,0,0,0,183.23,39.38Z"/>
        <path class="cls-14" d="M168.49,6.07h-1l0,0c0,.91,0,1.82.05,2.74l.1,2.74.09,5.49-.31-.28A4.15,4.15,0,0,0,170,14.82a7,7,0,0,0,1.07-3.16,9.79,9.79,0,0,0-.25-3.41,3.7,3.7,0,0,0-.8-1.5A2.33,2.33,0,0,0,168.49,6.07Zm0-.07a2.52,2.52,0,0,1,1.69.6,4.11,4.11,0,0,1,1.08,1.49,7.77,7.77,0,0,1,.59,3.63,6.72,6.72,0,0,1-1.25,3.5,4.81,4.81,0,0,1-3.11,2.07l-.32,0V17l.09-5.49.1-2.74c0-.92.06-1.83,0-2.74V6h1.07Z"/>
      </g>
    </g>
  </g>
</svg>
